# xmcd
#
# Track frame offsets: 
#        150
#        10438
#        20693
#        31716
#        42418
#        51421
#        62994
#        73054
#        85401
#        97860
#        108343
#        120135
#        131162
#        140838
#        153341
#        164658
#        177887
#        187479
#        198788
#        209054
#
# Disc length: 2922 seconds
#
# Revision: 0
# Processed by: cddbd v1.5.2PL0 Copyright (c) Steve Scherf et al.
# Submitted via: ExactAudioCopy v1.0b1
#
DISCID=2b0b6814
DTITLE=Hank Thompson - The Essential Recodings [CD2)
DYEAR=2017
DGENRE=Country
TTITLE0=Hank Thompson - Rub-A-Dub Dub
TTITLE1=Hank Thompson - Wake Up Irene
TTITLE2=Hank Thompson - Waiting In The Lobby Of Your Heart
TTITLE3=Hank Thompson - When You're Lovin', You're Livin'
TTITLE4=Hank Thompson - No Help Wanted
TTITLE5=Hank Thompson - Go Cry Your Heart Out
TTITLE6=Hank Thompson - A Fooler, A Faker
TTITLE7=Hank Thompson - Breakin' The Rules
TTITLE8=Hank Thompson - We've Gone Too Far
TTITLE9=Hank Thompson - If Lovin' You Is Wrong
TTITLE10=Hank Thompson - Annie Over
TTITLE11=Hank Thompson - Honky Tonk Girl
TTITLE12=Hank Thompson - The New Green Light
TTITLE13=Hank Thompson - Most Of All
TTITLE14=Hank Thompson - Breakin' In Another Heart
TTITLE15=Hank Thompson - Wildwood Flower (With Merle Travis)
TTITLE16=Hank Thompson - Honey Honey Bee Ball
TTITLE17=Hank Thompson - Don't Take It Out On Me
TTITLE18=Hank Thompson - I'm Not Mad, Just Hurt
TTITLE19=Hank Thompson - The Blackboard Of My Heart
EXTD=
EXTT0=
EXTT1=
EXTT2=
EXTT3=
EXTT4=
EXTT5=
EXTT6=
EXTT7=
EXTT8=
EXTT9=
EXTT10=
EXTT11=
EXTT12=
EXTT13=
EXTT14=
EXTT15=
EXTT16=
EXTT17=
EXTT18=
EXTT19=
PLAYORDER=
